<svg width="36" height="36" viewBox="0 0 36 36" fill="none" xmlns="http://www.w3.org/2000/svg">
<path d="M32.3709 11.1356C32.2011 10.5298 31.8703 9.98129 31.4137 9.54846C30.9441 9.10232 30.3687 8.78318 29.7416 8.62117C27.3946 8.00257 17.9918 8.00257 17.9918 8.00257C14.0718 7.95797 10.1529 8.15412 6.25697 8.58993C5.62986 8.76391 5.05545 9.09017 4.58486 9.53971C4.12247 9.98461 3.78754 10.5332 3.61258 11.1343C3.1923 13.3985 2.98809 15.6975 3.00272 18.0003C2.98773 20.301 3.19143 22.5992 3.61258 24.8662C3.78379 25.4648 4.11747 26.0109 4.58111 26.4521C5.04475 26.8932 5.62212 27.2119 6.25697 27.3806C8.63517 27.998 17.9918 27.998 17.9918 27.998C21.9167 28.0426 25.8407 27.8465 29.7416 27.4106C30.3687 27.2486 30.9441 26.9294 31.4137 26.4833C31.8761 26.0422 32.2047 25.4935 32.3697 24.8962C32.801 22.6329 33.0106 20.333 32.9958 18.029C33.0282 15.7153 32.8188 13.4045 32.3709 11.1343V11.1356ZM15.0025 22.2793V13.7225L22.8256 18.0015L15.0025 22.2793Z" fill="#8D86C9"/>
</svg>
