<svg width="36" height="36" viewBox="0 0 36 36" fill="none" xmlns="http://www.w3.org/2000/svg">
<path d="M31.798 11.4099C31.635 10.8283 31.3174 10.3018 30.879 9.88626C30.4283 9.45796 29.8758 9.15159 29.2738 8.99606C27.0207 8.40219 17.9939 8.40219 17.9939 8.40219C14.2307 8.35937 10.4685 8.54769 6.72837 8.96606C6.12633 9.13308 5.5749 9.4463 5.12312 9.87786C4.67922 10.305 4.35769 10.8317 4.18973 11.4087C3.78625 13.5823 3.59021 15.7894 3.60426 18.0001C3.58986 20.2088 3.78542 22.4151 4.18973 24.5914C4.35409 25.1661 4.67442 25.6904 5.11952 26.1139C5.56462 26.5374 6.1189 26.8433 6.72837 27.0053C9.01146 27.5979 17.9939 27.5979 17.9939 27.5979C21.7618 27.6408 25.5289 27.4525 29.2738 27.0341C29.8758 26.8785 30.4283 26.5722 30.879 26.1439C31.3229 25.7204 31.6385 25.1937 31.7968 24.6202C32.2108 22.4474 32.4121 20.2395 32.3979 18.0277C32.429 15.8065 32.228 13.5881 31.798 11.4087V11.4099ZM15.1241 22.108V13.8934L22.6344 18.0013L15.1241 22.108Z" fill="white"/>
</svg>
